# xmcd CD database file
#
# Track frame offsets:
#	150
#	11435
#	25425
#	37255
#	50477
#	62137
#	74257
#	87105
#	99685
#	112065
#	124055
#	137552
#	150645
#
# Disc length: 2165 seconds
#
# Revision: 0
# Processed by: cddbd v1.5PL3 Copyright (c) Steve Scherf et al.
# Submitted via: CDex 1.50beta10
#
DISCID=b408730d
DTITLE=Frankie Lee Sims - Lucy Mae Blues (Import Version)
DYEAR=1991
DGENRE=Blues
TTITLE0=Lucy Mae Blues
TTITLE1=Married Woman
TTITLE2=Jelly Roll Baker
TTITLE3=I'm So Glad
TTITLE4=Boogie Cross The Country
TTITLE5=Frankie's Blues
TTITLE6=Don't Take It Out On Me
TTITLE7=I Done Talked And I Done Talked
TTITLE8=Cryin' Won't Help You
TTITLE9=Raggedy And Dirty
TTITLE10=Lucy Mae Blues - Part 2
TTITLE11=Long Gone
TTITLE12=Yeh Baby
EXTD=YEAR: 1991
EXTT0=
EXTT1=
EXTT2=
EXTT3=
EXTT4=
EXTT5=
EXTT6=
EXTT7=
EXTT8=
EXTT9=
EXTT10=
EXTT11=
EXTT12=
PLAYORDER=
